<svg height="448pt" viewBox="0 0 448 448" width="448pt" xmlns="http://www.w3.org/2000/svg"><path d="m136 307.054688 166.113281-83.054688-166.113281-83.054688zm0 0"/><path d="m224 0c-123.710938 0-224 100.289062-224 224s100.289062 224 224 224 224-100.289062 224-224c-.140625-123.652344-100.347656-223.859375-224-224zm112 320c0 4.417969-3.582031 8-8 8s-8-3.582031-8-8v-87.054688l-188.425781 94.253907c-2.484375 1.242187-5.4375 1.105469-7.800781-.363281-2.359376-1.46875-3.789063-4.054688-3.773438-6.835938v-192c0-2.773438 1.433594-5.347656 3.792969-6.808594 2.355469-1.457031 5.300781-1.589844 7.78125-.351562l188.425781 94.214844v-87.054688c0-4.417969 3.582031-8 8-8s8 3.582031 8 8zm0 0"/></svg>