<?xml version="1.0" encoding="iso-8859-1"?>
<!-- Generator: Adobe Illustrator 19.0.0, SVG Export Plug-In . SVG Version: 6.00 Build 0)  -->
<svg version="1.1" id="Capa_1" xmlns="http://www.w3.org/2000/svg" xmlns:xlink="http://www.w3.org/1999/xlink" x="0px" y="0px"
	 viewBox="0 0 491.52 491.52" style="enable-background:new 0 0 491.52 491.52;" xml:space="preserve">
<circle style="fill:#334D5C;" cx="245.76" cy="245.76" r="245.76"/>
<circle style="fill:#E56353;" cx="245.76" cy="245.76" r="135.214"/>
<path style="fill:#D15241;" d="M219.129,185.914h-30.828c-2.244,0-4.063,1.819-4.063,4.063v121.805c0,2.244,1.819,4.063,4.063,4.063
	h30.828c2.244,0,4.062-1.819,4.062-4.063V189.978C223.192,187.733,221.373,185.914,219.129,185.914z"/>
<path style="fill:#FFFFFF;" d="M219.129,175.674h-30.828c-2.244,0-4.063,1.819-4.063,4.063v121.805c0,2.244,1.819,4.063,4.063,4.063
	h30.828c2.244,0,4.062-1.819,4.062-4.063V179.738C223.192,177.493,221.373,175.674,219.129,175.674z"/>
<path style="fill:#D15241;" d="M303.219,185.914h-30.828c-2.244,0-4.062,1.819-4.062,4.063v121.805c0,2.244,1.819,4.063,4.062,4.063
	h30.828c2.244,0,4.063-1.819,4.063-4.063V189.978C307.281,187.733,305.463,185.914,303.219,185.914z"/>
<path style="fill:#FFFFFF;" d="M303.219,175.674h-30.828c-2.244,0-4.062,1.819-4.062,4.063v121.805c0,2.244,1.819,4.063,4.062,4.063
	h30.828c2.244,0,4.063-1.819,4.063-4.063V179.738C307.281,177.493,305.463,175.674,303.219,175.674z"/>
<g>
</g>
<g>
</g>
<g>
</g>
<g>
</g>
<g>
</g>
<g>
</g>
<g>
</g>
<g>
</g>
<g>
</g>
<g>
</g>
<g>
</g>
<g>
</g>
<g>
</g>
<g>
</g>
<g>
</g>
</svg>
