<svg height="448pt" viewBox="0 0 448 448" width="448pt" xmlns="http://www.w3.org/2000/svg"><path d="m312 307.054688v-166.109376l-166.113281 83.054688zm0 0"/><path d="m224 0c-123.710938 0-224 100.289062-224 224s100.289062 224 224 224 224-100.289062 224-224c-.140625-123.652344-100.347656-223.859375-224-224zm104 320c.015625 2.78125-1.414062 5.367188-3.773438 6.835938-2.363281 1.46875-5.316406 1.605468-7.800781.363281l-188.425781-94.253907v87.054688c0 4.417969-3.582031 8-8 8s-8-3.582031-8-8v-192c0-4.417969 3.582031-8 8-8s8 3.582031 8 8v87.054688l188.425781-94.214844c2.480469-1.238282 5.425781-1.105469 7.78125.351562 2.359375 1.460938 3.792969 4.035156 3.792969 6.808594zm0 0"/></svg>