<svg id="Capa_1" enable-background="new 0 0 512 512" height="512" viewBox="0 0 512 512" width="512" xmlns="http://www.w3.org/2000/svg"><g><path d="m0 30.123v451.755h512v-451.755zm30 30h30.25v391.755h-30.25zm452 391.754h-391.75v-391.754h391.75z"/><path d="m286.122 421.617c91.324 0 165.622-74.298 165.622-165.623 0-91.324-74.298-165.622-165.622-165.622s-165.622 74.298-165.622 165.623c0 91.324 74.298 165.622 165.622 165.622zm0-301.244c74.782 0 135.622 60.84 135.622 135.622 0 74.783-60.84 135.623-135.622 135.623s-135.622-60.841-135.622-135.623c0-74.783 60.84-135.622 135.622-135.622z"/><path d="m286.122 301.122c24.883 0 45.127-20.244 45.127-45.127s-20.244-45.127-45.127-45.127-45.127 20.244-45.127 45.127 20.244 45.127 45.127 45.127zm0-60.254c8.341 0 15.127 6.786 15.127 15.127s-6.786 15.127-15.127 15.127-15.127-6.786-15.127-15.127 6.786-15.127 15.127-15.127z"/></g></svg>