<svg id="Capa_1" enable-background="new 0 0 512 512" height="512" viewBox="0 0 512 512" width="512" xmlns="http://www.w3.org/2000/svg"><g><path d="m512 31.998v448h-448l-19.72-224 19.72-224z" fill="#ff3e58"/><path d="m288 31.998h224v448h-224z" fill="#de0b4c"/><path d="m0 31.997h64v448.006h-64z" fill="#604b99"/><path d="m447.99 255.998c0 88.36-71.63 159.99-159.99 159.99-88.37 0-160-71.63-160-159.99 0-88.37 71.63-160 160-160 88.36 0 159.99 71.631 159.99 160z" fill="#fff5f5"/><path d="m447.99 255.998c0 88.36-71.63 159.99-159.99 159.99v-319.99c88.36 0 159.99 71.631 159.99 160z" fill="#ece6f2"/><path d="m320 255.998c0 17.67-14.33 32-32 32-17.68 0-32.01-14.33-32.01-32 0-17.68 14.33-32.01 32.01-32.01 17.67 0 32 14.33 32 32.01z" fill="#604b99"/><path d="m320 255.998c0 17.67-14.33 32-32 32v-64.01c17.67 0 32 14.33 32 32.01z" fill="#3e3175"/></g></svg>