<svg id="Capa_1" enable-background="new 0 0 512 512" height="512" viewBox="0 0 512 512" width="512" xmlns="http://www.w3.org/2000/svg"><g><path d="m287.997 110.997c-79.952 0-144.997 65.045-144.997 144.997s65.045 144.997 144.997 144.997 144.997-65.045 144.997-144.997-65.045-144.997-144.997-144.997zm0 192c-25.917 0-47.002-21.085-47.002-47.002s21.085-47.002 47.002-47.002 47.002 21.085 47.002 47.002-21.085 47.002-47.002 47.002z"/><path d="m287.997 238.992c-9.375 0-17.003 7.627-17.003 17.002s7.628 17.002 17.003 17.002 17.002-7.627 17.002-17.002-7.627-17.002-17.002-17.002z"/><path d="m0 31.997h49v448.005h-49z"/><path d="m79 31.997v448.005h433v-448.005zm208.997 398.994c-96.494 0-174.997-78.503-174.997-174.997s78.503-174.997 174.997-174.997 174.997 78.503 174.997 174.997-78.503 174.997-174.997 174.997z"/></g></svg>