<svg height="512pt" viewBox="0 0 512.00075 512" width="512pt" xmlns="http://www.w3.org/2000/svg"><path d="m397.808594 334.175781c-5.914063-5.945312-15.917969-5.914062-21.753906.570313l-9.519532 10.578125-23.613281-23.613281c29.269531-34.121094 47.078125-78.339844 47.078125-126.710938 0-107.519531-87.480469-195-195-195s-195 87.480469-195 195 87.480469 195 195 195c48.371094 0 92.589844-17.808594 126.710938-47.078125l24.726562 24.726563-10.578125 11.746093c-5.332031 5.933594-5.097656 15 .542969 20.640625l98.804687 98.773438c17.582031 17.582031 46.035157 17.597656 63.632813 0 17.546875-17.550782 17.546875-46.085938 0-63.632813zm-202.808594-4.175781c-74.441406 0-135-60.554688-135-135 0-74.441406 60.558594-135 135-135s135 60.558594 135 135c0 74.445312-60.558594 135-135 135zm0 0"/><path d="m195 90c-57.890625 0-105 47.109375-105 105s47.109375 105 105 105 105-47.109375 105-105-47.109375-105-105-105zm-.027344 180c-8.285156 0-15-6.714844-15-15s6.714844-15 15-15 15 6.714844 15 15-6.714844 15-15 15zm15-62.5625v2.59375c-.015625 8.273438-6.726562 14.96875-15 14.96875-.015625 0-.015625 0-.03125 0-8.289062-.011719-14.984375-6.738281-14.96875-15.027344l.027344-15c.015625-8.277344 6.722656-14.972656 15-14.972656s15-6.722656 15-15c0-8.273438-6.722656-15-15-15s-15 6.726562-15 15c0 8.292969-6.710938 15-15 15s-15-6.707031-15-15c0-24.8125 20.1875-45 45-45s45 20.1875 45 45c0 19.570312-12.554688 36.253906-30.027344 42.4375zm0 0"/></svg>