<svg height="436pt" viewBox="0 0 436.00021 436" width="436pt" xmlns="http://www.w3.org/2000/svg"><path d="m218 0c120.398438 0 218 97.601562 218 218 .066406 67.550781-31.246094 131.300781-84.75 172.539062v-24.828124c0-73.59375-59.65625-133.25-133.25-133.25s-133.25 59.65625-133.25 133.25v24.828124c-53.503906-41.238281-84.8164062-104.988281-84.75-172.539062 0-120.398438 97.601562-218 218-218zm67.761719 134.460938c-.070313-32.027344-22.742188-59.550782-54.164063-65.746094-31.417968-6.199219-62.84375 10.652344-75.070312 40.253906-12.222656 29.601562-1.84375 63.714844 24.792968 81.492188 26.636719 17.78125 62.125 14.273437 84.769532-8.371094 12.636718-12.625 19.71875-29.765625 19.671875-47.628906zm0 0" fill="#00efd1"/><g fill="#00acea"><path d="m351.25 365.710938v24.828124c-78.492188 60.613282-188.007812 60.613282-266.5 0v-24.828124c0-73.59375 59.65625-133.25 133.25-133.25s133.25 59.65625 133.25 133.25zm0 0"/><path d="m266.089844 86.820312c22.835937 22.734376 26.421875 58.4375 8.5625 85.257813-17.855469 26.824219-52.179688 37.289063-81.964844 24.988281-29.78125-12.296875-46.722656-43.925781-40.457031-75.535156 6.265625-31.605469 33.996093-54.378906 66.21875-54.382812 17.867187-.050782 35.015625 7.03125 47.640625 19.671874zm0 0"/></g></svg>