<svg id="Layer_1" enable-background="new 0 0 512 512" height="512" viewBox="0 0 512 512" width="512" xmlns="http://www.w3.org/2000/svg"><g><g><path d="m457.828 138.532c-.975 0-1.955-.185-2.886-.562l-74.783-30.275c-2.904-1.176-4.805-3.996-4.805-7.129v-78.131c0-4.248 3.443-7.691 7.691-7.691s7.691 3.443 7.691 7.691v72.947l59.401 24.048v-66.72c0-4.248 3.443-7.691 7.691-7.691s7.691 3.443 7.691 7.691v78.131c0 2.558-1.271 4.948-3.392 6.378-1.289.868-2.789 1.313-4.299 1.313z" fill="#395a6e"/><g fill="#54768a"><circle cx="470.228" cy="52.71" r="20.091"/><circle cx="395.445" cy="22.435" r="20.091"/></g></g><g><g><g><path d="m1.172 439.227h509.656v72.773h-509.656z" fill="#ffdb0d"/><path d="m469.809 439.227h41.019v72.773h-41.019z" fill="#f5d000"/><path d="m510.828 438.409h-509.656l61.528-169.687h386.6z" fill="#fff0ca"/><path d="m449.3 268.722h-41.018l61.527 169.687h41.019z" fill="#f9e8b7"/><g><g><path d="m383.274 483.304c9.898 0 9.914-15.382 0-15.382-9.897 0-9.914 15.382 0 15.382z" fill="#fff"/></g><g><path d="m424.804 483.304c9.898 0 9.914-15.382 0-15.382-9.898 0-9.914 15.382 0 15.382z" fill="#fff"/></g><g><path d="m466.333 483.304c9.898 0 9.914-15.382 0-15.382-9.898 0-9.914 15.382 0 15.382z" fill="#fff"/></g></g></g><g><ellipse cx="192.526" cy="344.048" fill="#54768a" rx="164.321" ry="125.231"/><path d="m192.526 218.817c-6.946 0-13.79.332-20.509.97 81.072 7.693 143.811 60.392 143.811 124.261s-62.74 116.568-143.811 124.261c6.719.638 13.563.97 20.509.97 90.752 0 164.321-56.068 164.321-125.231s-73.569-125.231-164.321-125.231z" fill="#416a82"/><ellipse cx="192.526" cy="338.607" fill="#e0efff" rx="65.071" ry="49.592"/><g><path d="m192.526 345.215c9.898 0 9.914-15.382 0-15.382-9.897 0-9.914 15.382 0 15.382z" fill="#fff"/></g></g></g><g><path d="m423.908 231.324v74.738h-35.082v-74.738c0-22.532 35.082-22.872 35.082 0z" fill="#f5d000"/><path d="m418.881 244.037-98.803 102.629c-6.73 6.968-17.835 7.161-24.803.431-6.968-6.73-7.161-17.835-.431-24.803l98.803-102.629c15.654-16.208 41.123 7.92 25.234 24.372z" fill="#ffdb0d"/></g></g><g><g><path d="m200.37 124.766c-4.248 0-7.691-3.443-7.691-7.691v-78.131c0-3.102 1.863-5.9 4.725-7.096l74.783-31.253c2.374-.992 5.088-.732 7.228.694 2.142 1.426 3.428 3.828 3.428 6.402v78.131c0 4.248-3.443 7.691-7.691 7.691s-7.691-3.443-7.691-7.691v-66.581l-59.401 24.824v73.01c.001 4.247-3.443 7.691-7.69 7.691z" fill="#395a6e"/><g fill="#54768a"><circle cx="187.97" cy="117.075" r="20.091"/><circle cx="262.753" cy="85.822" r="20.091"/></g></g><path d="m83.386 90.252c-10.389 0-19.322 6.913-23.267 16.818-3.945-9.905-12.877-16.818-23.267-16.818-14.042 0-25.426 12.627-25.426 28.204 0 35.655 48.692 55.344 48.692 55.344s48.213-19.956 48.692-55.344c.212-15.575-11.382-28.204-25.424-28.204z" fill="#ff5492"/><g fill="#ff91c1"><path d="m341.417 137.792c-6.237 0-11.6 4.15-13.968 10.097-2.368-5.947-7.731-10.097-13.968-10.097-8.43 0-15.264 7.581-15.264 16.933 0 21.405 29.233 33.226 29.233 33.226s28.945-11.981 29.233-33.226c.125-9.351-6.836-16.933-15.266-16.933z"/><path d="m146.602 2.344c-6.237 0-11.6 4.15-13.968 10.097-2.368-5.947-7.731-10.097-13.968-10.097-8.43 0-15.264 7.581-15.264 16.933 0 21.405 29.233 33.226 29.233 33.226s28.945-11.981 29.233-33.226c.125-9.351-6.836-16.933-15.266-16.933z"/></g></g></g></svg>