<svg height="456pt" viewBox="0 0 456.03412 456" width="456pt" xmlns="http://www.w3.org/2000/svg"><path d="m361.253906 375.726562v24.832032c-78.496094 60.613281-188.007812 60.613281-266.5 0v-24.832032c0-73.589843 59.65625-133.25 133.25-133.25 73.589844 0 133.25 59.660157 133.25 133.25zm0 0" fill="#00acea"/><path d="m276.09375 96.835938c22.835938 22.734374 26.417969 58.4375 8.5625 85.261718-17.859375 26.820313-52.179688 37.285156-81.964844 24.988282-29.78125-12.296876-46.726562-43.929688-40.457031-75.535157 6.265625-31.609375 33.996094-54.382812 66.21875-54.382812 17.867187-.050781 35.015625 7.027343 47.640625 19.667969zm0 0" fill="#00acea"/><path d="m228.003906 10.015625c120.398438 0 218 97.601563 218 218 .066406 67.550781-31.25 131.300781-84.75 172.542969v-24.832032c0-73.589843-59.660156-133.25-133.25-133.25-73.59375 0-133.25 59.660157-133.25 133.25v24.832032c-53.503906-41.242188-84.816406-104.992188-84.75-172.542969 0-120.398437 97.597656-218 218-218zm67.757813 134.460937c-.066407-32.027343-22.738281-59.546874-54.160157-65.746093-31.417968-6.199219-62.84375 10.652343-75.070312 40.253906-12.222656 29.601563-1.84375 63.714844 24.792969 81.496094 26.636719 17.777343 62.125 14.273437 84.769531-8.375 12.636719-12.621094 19.71875-29.765625 19.667969-47.628907zm0 0" fill="#00efd1"/><g fill="#083863"><path d="m228.003906.015625c-79.046875.03125-152.4375 40.984375-193.976562 108.234375-41.535156 67.253906-45.289063 151.214844-9.925782 221.90625 15.414063 30.582031 37.460938 57.335938 64.53125 78.3125 82.09375 63.398438 196.636719 63.398438 278.734376 0 27.074218-20.972656 49.121093-47.730469 64.535156-78.3125 35.394531-70.6875 31.652344-154.664062-9.890625-221.925781-41.539063-67.261719-114.953125-108.2070315-194.007813-108.214844zm-123.25 395.558594v-19.847657c0-68.070312 55.179688-123.25 123.25-123.25 68.066406 0 123.25 55.179688 123.25 123.25v19.847657c-73.320312 53.921875-173.179687 53.921875-246.5 0zm266.5-16.75v-3.097657c0-78.988281-64.261718-143.25-143.25-143.25-79.113281.003907-143.246094 64.136719-143.25 143.25v3.101563c-41.5-39.164063-64.9375-93.753906-64.75-150.8125 0-114.691406 93.308594-208 208-208s208 93.308594 208 208c.183594 57.058594-23.253906 111.648437-64.75 150.808594zm0 0"/><path d="m228.453125 67.167969c-36.796875.070312-68.417969 26.117187-75.542969 62.214843-7.125 36.101563 12.230469 72.207032 46.238282 86.253907 34.007812 14.050781 73.203124 2.128906 93.632812-28.476563 20.429688-30.605468 16.402344-71.375-9.613281-97.394531-14.484375-14.542969-34.191407-22.679687-54.714844-22.597656zm40.566406 117.871093c-19.363281 19.460938-49.78125 22.519532-72.632812 7.3125-22.855469-15.210937-31.773438-44.453124-21.296875-69.824218 10.476562-25.375 37.421875-39.8125 64.351562-34.46875 26.925782 5.339844 46.324219 28.964844 46.324219 56.417968.0625 15.214844-5.96875 29.824219-16.746094 40.5625zm0 0"/></g></svg>